<svg width="1920" height="1080" viewBox="0 0 1920 1080" fill="none" xmlns="http://www.w3.org/2000/svg">
<g clip-path="url(#clip0_21_181)">
<rect width="1920" height="1080" fill="#050505"/>
<g filter="url(#filter0_f_21_181)">
<path d="M1470.81 216.886C1470.81 446.625 1657.32 632.912 1887.35 632.912H2768.84V684.85H1887.35C1657.32 684.85 1470.81 871.137 1470.81 1100.88V1288.23H1418.73V1100.88C1418.73 871.137 1232.2 684.85 1002.18 684.772H-247.499V632.912H1002.18C1232.2 632.912 1418.73 446.546 1418.73 216.807V-409H1470.81V216.886Z" fill="#6D28D9"/>
<path d="M-1471.69 216.886C-1471.69 446.625 -1285.18 632.912 -1055.15 632.912H-173.661V684.85H-1055.15C-1285.18 684.85 -1471.69 871.137 -1471.69 1100.88V1288.23H-1523.77V1100.88C-1523.77 871.137 -1710.3 684.85 -1940.32 684.772H-3190V632.912H-1940.32C-1710.3 632.912 -1523.77 446.546 -1523.77 216.807V-409H-1471.69V216.886Z" fill="#6D28D9"/>
<path d="M1470.81 1382.95C1470.81 1612.69 1657.32 1798.97 1887.35 1798.97H2768.84V1850.91H1887.35C1657.32 1850.91 1470.81 2037.2 1470.81 2266.94V2454.29H1418.73V2266.94C1418.73 2037.2 1232.2 1850.91 1002.18 1850.83H-247.499V1798.97H1002.18C1232.2 1798.97 1418.73 1612.61 1418.73 1382.87V757.061H1470.81V1382.95Z" fill="#6D28D9"/>
</g>
<g filter="url(#filter1_f_21_181)">
<path d="M1446.12 377.177C1446.12 522.966 1564.21 641.181 1709.86 641.181H2268V674.14H1709.86C1564.21 674.14 1446.12 792.355 1446.12 938.143V1057.04H1413.14V938.143C1413.14 792.355 1295.04 674.14 1149.39 674.09H358.124V641.181H1149.39C1295.04 641.181 1413.14 522.916 1413.14 377.127V-20H1446.12V377.177Z" fill="#D9D9D9"/>
<path d="M-417.007 377.177C-417.007 522.966 -298.913 641.181 -153.265 641.181H404.876V674.14H-153.265C-298.913 674.14 -417.007 792.355 -417.007 938.143V1057.04H-449.982V938.143C-449.982 792.355 -568.086 674.14 -713.734 674.09H-1505V641.181H-713.734C-568.086 641.181 -449.982 522.916 -449.982 377.127V-20H-417.007V377.177Z" fill="#D9D9D9"/>
<path d="M1446.12 1117.14C1446.12 1262.93 1564.21 1381.14 1709.86 1381.14H2268V1414.1H1709.86C1564.21 1414.1 1446.12 1532.32 1446.12 1678.11V1797H1413.14V1678.11C1413.14 1532.32 1295.04 1414.1 1149.39 1414.05H358.124V1381.14H1149.39C1295.04 1381.14 1413.14 1262.88 1413.14 1117.09V719.964H1446.12V1117.14Z" fill="#D9D9D9"/>
</g>
</g>
<defs>
<filter id="filter0_f_21_181" x="-3310" y="-529" width="6198.84" height="3103.29" filterUnits="userSpaceOnUse" color-interpolation-filters="sRGB">
<feFlood flood-opacity="0" result="BackgroundImageFix"/>
<feBlend mode="normal" in="SourceGraphic" in2="BackgroundImageFix" result="shape"/>
<feGaussianBlur stdDeviation="60" result="effect1_foregroundBlur_21_181"/>
</filter>
<filter id="filter1_f_21_181" x="-1585" y="-100" width="3933" height="1977" filterUnits="userSpaceOnUse" color-interpolation-filters="sRGB">
<feFlood flood-opacity="0" result="BackgroundImageFix"/>
<feBlend mode="normal" in="SourceGraphic" in2="BackgroundImageFix" result="shape"/>
<feGaussianBlur stdDeviation="40" result="effect1_foregroundBlur_21_181"/>
</filter>
<clipPath id="clip0_21_181">
<rect width="1920" height="1080" fill="white"/>
</clipPath>
</defs>
</svg>
