<svg width="1080" height="1080" viewBox="0 0 1080 1080" fill="none" xmlns="http://www.w3.org/2000/svg">
<path d="M385.6 665.2C385.6 693.1 371.8 715.6 371.8 715.6L235.7 579.5C261.2 564.5 293 561 322.6 572.6C361.7 588 385.6 625.5 385.6 665.1V665.2Z" fill="#F7F7F7"/>
<path d="M295.9 511.3C283.6 542.4 257.5 563.8 227.4 571.3L137.5 481.4L292 429.9C304.4 454.3 306.6 483.7 295.8 511.2L295.9 511.3Z" fill="#F7F7F7"/>
<path d="M489 364.3L453.2 471.8C426.6 491.6 390.6 497.6 357.4 484.5C330.2 473.8 310.4 452.4 300.8 427L489 364.2V364.3Z" fill="#F7F7F7"/>
<path d="M448 487.2L396.6 641.5C377 614.9 371.1 579.1 384.1 546C395.7 516.5 419.9 495.7 448 487.2Z" fill="#F7F7F7"/>
<path d="M564.1 436.9H550.6L495.5 561.4H512.4L557.1 459L602.3 561.4H619.3L564.1 436.9Z" fill="#F7F7F7"/>
<path d="M697.2 561.4L649.7 517.6V561.4H634.6V429.9H649.7V507.9L687.9 473.7H707.9L664.8 512.5L717.6 561.4H697.3H697.2Z" fill="#F7F7F7"/>
<path d="M759.6 563.2C747.4 563.2 737.2 558.8 729 549.9C720.8 541 716.6 530.3 716.6 517.6C716.6 504.9 720.7 494.2 729 485.3C737.2 476.4 747.4 472 759.6 472C771.8 472 772 473.4 777.6 476.3C783.2 479.2 787.4 482.8 790.5 487.3V473.8H805.6V561.5H790.5V548C787.5 552.4 783.2 556.1 777.6 559C772 561.9 766.1 563.3 759.6 563.3V563.2ZM761.9 549.3C770.6 549.3 777.7 546.3 783.3 540.2C788.9 534.1 791.7 526.6 791.7 517.6C791.7 508.6 788.9 501.1 783.3 495C777.7 488.9 770.6 485.9 761.9 485.9C753.2 485.9 745.9 488.9 740.3 495C734.7 501.1 731.9 508.6 731.9 517.6C731.9 526.6 734.7 534.1 740.3 540.2C745.9 546.3 753.1 549.3 761.9 549.3Z" fill="#F7F7F7"/>
<path d="M860.6 563.2C848.4 563.2 838.2 558.8 830 549.9C821.8 541 817.6 530.3 817.6 517.6C817.6 504.9 821.7 494.2 830 485.3C838.2 476.4 848.4 472 860.6 472C872.8 472 873 473.4 878.6 476.3C884.2 479.2 888.4 482.8 891.5 487.3V473.8H906.6V561.5H891.5V548C888.5 552.4 884.2 556.1 878.6 559C873 561.9 867.1 563.3 860.6 563.3V563.2ZM862.8 549.3C871.5 549.3 878.6 546.3 884.2 540.2C889.8 534.1 892.6 526.6 892.6 517.6C892.6 508.6 889.8 501.1 884.2 495C878.6 488.9 871.5 485.9 862.8 485.9C854.1 485.9 846.8 488.9 841.2 495C835.6 501.1 832.8 508.6 832.8 517.6C832.8 526.6 835.6 534.1 841.2 540.2C846.8 546.3 854 549.3 862.8 549.3Z" fill="#F7F7F7"/>
<path d="M927.4 561.4V429.9H942.5V561.4H927.4Z" fill="#F7F7F7"/>
<path d="M535.7 610.9C534.5 609.1 532.7 607.5 530.3 606.3C527.9 605.1 525.4 604.5 522.7 604.5C520 604.5 517.2 605.1 514.9 606.2C512.6 607.3 510.7 608.8 509.1 610.7C507.5 612.6 506.3 614.7 505.5 617.2C504.7 619.7 504.3 622.2 504.3 624.9C504.3 627.6 504.7 630.2 505.5 632.6C506.3 635.1 507.5 637.2 509.1 639.1C510.7 641 512.6 642.5 514.9 643.6C517.2 644.7 519.8 645.3 522.8 645.3C525.8 645.3 528.3 644.7 530.6 643.6C532.9 642.5 534.9 641 536.4 639.1L543.9 645.9C541.5 648.7 538.5 650.8 535 652.4C531.4 653.9 527.4 654.7 522.9 654.7C518.4 654.7 514.5 654 510.8 652.6C507.1 651.2 503.9 649.2 501.2 646.6C498.5 644 496.4 640.9 494.8 637.3C493.3 633.6 492.5 629.6 492.5 625C492.5 620.4 493.3 616.5 494.8 612.9C496.3 609.2 498.4 606.1 501.1 603.5C503.8 600.9 507 598.9 510.7 597.4C514.4 596 518.4 595.3 522.7 595.3C527 595.3 530.6 596.1 534.5 597.7C538.4 599.3 541.5 601.6 543.8 604.6L535.7 611.1V610.9Z" fill="#F7F7F7"/>
<path d="M554.8 602.9C554.8 600.5 554.6 598.4 554.4 596.6H565C565.2 598 565.3 599.7 565.4 601.5C565.4 603.4 565.5 604.9 565.5 606.1H565.9C567.5 602.8 569.8 600.1 572.9 598.1C576 596.1 579.4 595.1 583.2 595.1C587 595.1 586.4 595.3 587.6 595.6L587.1 606C585.5 605.6 583.8 605.4 582 605.4C579.3 605.4 577 605.9 575 606.9C573 607.9 571.4 609.2 570.1 610.9C568.8 612.6 567.8 614.5 567.2 616.7C566.6 618.9 566.2 621.2 566.2 623.5V653.2H555V608.9C555 607.4 555 605.4 554.9 603.1L554.8 602.9Z" fill="#F7F7F7"/>
<path d="M656.6 625.3V623.4C656.6 622.8 656.6 622.1 656.7 621.5H701.6C701.6 619.1 701 616.9 700 614.8C699 612.7 697.7 610.9 696 609.4C694.3 607.9 692.4 606.7 690.2 605.8C688 604.9 685.7 604.5 683.2 604.5C679.4 604.5 676.1 605.3 673.3 607C670.5 608.7 668.3 610.7 666.8 613.1L658.9 606.8C661.9 602.8 665.5 599.9 669.6 598C673.7 596.1 678.2 595.2 683.2 595.2C688.2 595.2 691.5 595.9 695.1 597.3C698.8 598.7 701.9 600.7 704.5 603.3C707.1 605.9 709.2 609 710.7 612.6C712.2 616.3 713 620.3 713 624.7C713 629.1 712.3 633.1 710.8 636.8C709.3 640.5 707.3 643.6 704.7 646.3C702.1 648.9 699 651 695.4 652.4C691.8 653.9 688 654.6 683.8 654.6C679.6 654.6 675.9 653.9 672.5 652.6C669.1 651.2 666.3 649.3 663.9 646.8C661.6 644.3 659.7 641.2 658.5 637.6C657.2 634 656.6 629.9 656.6 625.4V625.3ZM668 629.8C668 632 668.5 634.1 669.1 636.1C669.8 638 670.8 639.7 672.1 641.2C673.4 642.6 675 643.8 677 644.6C678.9 645.4 681.2 645.8 683.8 645.8C686.4 645.8 688.4 645.4 690.5 644.6C692.6 643.8 694.4 642.6 696 641.2C697.5 639.8 698.8 638.1 699.8 636.1C700.8 634.2 701.4 632.1 701.5 629.8H667.9H668Z" fill="#F7F7F7"/>
<path d="M609.9 633.1C609.9 637.3 611.2 640.4 613.7 642.4C616.2 644.4 619.6 645.4 623.8 645.4C628 645.4 630 644.8 632.8 643.6C635.6 642.4 638 640.8 639.9 638.9L645.9 646C643.1 648.6 639.7 650.7 635.7 652.2C631.7 653.7 627.4 654.5 622.8 654.5C618.2 654.5 615.2 653.9 612.3 652.8C609.3 651.6 606.9 650.1 605 648.1C603.1 646.1 601.7 643.8 600.7 641.1C599.7 638.4 599.3 635.5 599.3 632.4V607.7C599.3 605.8 599.3 603.8 599.1 601.7C599 599.6 598.8 597.9 598.4 596.5H608.5C609.1 599.2 609.5 601.9 609.5 604.6H609.9C612 601.6 614.6 599.2 617.7 597.6C620.8 595.9 624.5 595.1 628.8 595.1C633.1 595.1 633.3 595.4 635.8 596C638.2 596.6 640.4 597.6 642.4 598.9C644.4 600.2 646 602 647.3 604.3C648.6 606.5 649.3 609.3 649.3 612.5C649.3 615.7 648.1 620.2 645.8 622.7C643.5 625.2 640.5 627.1 636.7 628.4C633 629.7 628.8 630.6 624.1 631C619.4 631.4 614.7 631.6 609.9 631.6V633.1ZM612.6 623.4C615.4 623.4 618.3 623.3 621.2 623C624.2 622.8 626.9 622.3 629.3 621.6C631.7 620.9 633.7 619.8 635.3 618.4C636.9 617 637.7 615.1 637.7 612.7C637.7 610.3 637.4 609.6 636.7 608.5C636 607.4 635.1 606.5 634 605.8C632.9 605.1 631.7 604.6 630.3 604.3C629 604 627.6 603.9 626.1 603.9C620.9 603.9 616.8 605.5 614 608.6C611.2 611.7 609.8 615.7 609.8 620.4V623.4H612.5H612.6Z" fill="#F7F7F7"/>
<path d="M864.1 633.1C864.1 637.3 865.4 640.4 867.9 642.4C870.4 644.4 873.8 645.4 878 645.4C882.2 645.4 884.2 644.8 887 643.6C889.8 642.4 892.2 640.8 894.1 638.9L900.1 646C897.3 648.6 893.9 650.7 889.9 652.2C885.9 653.7 881.6 654.5 877 654.5C872.4 654.5 869.4 653.9 866.5 652.8C863.5 651.6 861.1 650.1 859.2 648.1C857.3 646.1 855.9 643.8 854.9 641.1C853.9 638.4 853.5 635.5 853.5 632.4V607.7C853.5 605.8 853.5 603.8 853.3 601.7C853.2 599.6 853 597.9 852.6 596.5H862.7C863.3 599.2 863.7 601.9 863.7 604.6H864.1C866.2 601.6 868.8 599.2 871.9 597.6C875 595.9 878.7 595.1 883 595.1C887.3 595.1 887.5 595.4 890 596C892.4 596.6 894.6 597.6 896.6 598.9C898.6 600.2 900.2 602 901.5 604.3C902.8 606.5 903.5 609.3 903.5 612.5C903.5 615.7 902.3 620.2 900 622.7C897.7 625.2 894.7 627.1 890.9 628.4C887.2 629.7 883 630.6 878.3 631C873.6 631.4 868.9 631.6 864.1 631.6V633.1ZM866.9 623.4C869.7 623.4 872.6 623.3 875.5 623C878.5 622.8 881.2 622.3 883.6 621.6C886 620.9 888 619.8 889.6 618.4C891.2 617 892 615.1 892 612.7C892 610.3 891.7 609.6 891 608.5C890.3 607.4 889.4 606.5 888.3 605.8C887.2 605.1 886 604.6 884.6 604.3C883.3 604 881.9 603.9 880.4 603.9C875.2 603.9 871.1 605.5 868.3 608.6C865.5 611.7 864.1 615.7 864.1 620.4V623.4H866.8H866.9Z" fill="#F7F7F7"/>
<path d="M754.4 605.8H739.4V635.1C739.4 638.5 740 640.9 741.3 642.4C742.6 643.9 744.6 644.6 747.4 644.6C750.2 644.6 749.5 644.5 750.7 644.3C751.9 644.1 753 643.8 753.9 643.3L754.3 652.5C752.9 653 751.5 653.4 749.8 653.6C748.2 653.9 746.5 654 744.7 654C739.4 654 735.3 652.5 732.5 649.6C729.7 646.7 728.3 642.3 728.3 636.4V605.8H717.5V596.6C723.5 596.6 728.3 591.7 728.3 585.8V583.8H739.4V596.6H754.4V605.8Z" fill="#F7F7F7"/>
<path d="M777.3 596.6H766.1V653H777.3V596.6Z" fill="#F7F7F7"/>
<path d="M823.4 653.1H811.3L788.3 596.7H800.7L817.3 641.1H817.5L834.2 596.7H846.1L823.5 653.1H823.4Z" fill="#F7F7F7"/>
</svg>
