<svg width="1080" height="1080" viewBox="0 0 1080 1080" fill="none" xmlns="http://www.w3.org/2000/svg">
<path d="M321.4 469.3C321.4 469.3 263.9 492.2 210.4 554.5L186.4 530.5L137.5 481.6L187.6 464.9L248.6 444.6C304.6 457.2 321.4 469.3 321.4 469.3Z" fill="#F7F7F7"/>
<path d="M406.2 609.4L388.1 663.8L371 715.1L344 688.1L324.3 668.4C295.4 589 298.2 560.4 298.2 560.4C298.2 560.4 338.3 592.1 406.1 609.2L406.2 609.4Z" fill="#F7F7F7"/>
<path d="M301.2 645.3L220.5 564.6C262.9 517.5 283.5 508.2 283.5 508.2C283.5 508.2 274.7 568.6 301.2 645.3Z" fill="#F7F7F7"/>
<path d="M374.1 482.6C374.1 482.6 337.3 453.5 274.5 436L359.2 407.8C376.1 462.2 374.1 482.7 374.1 482.7V482.6Z" fill="#F7F7F7"/>
<path d="M438.1 513.9L410.9 595.5C365.2 584.1 351 573.9 351 573.9C351 573.9 392.7 557.3 438.1 513.9Z" fill="#F7F7F7"/>
<path d="M487.8 364.9L467.4 426L448.8 481.9C408.4 526.1 388.9 534.9 388.9 534.9C388.9 534.9 397.3 477.3 373 403.2L409.4 391.1L487.8 365V364.9Z" fill="#F7F7F7"/>
<path d="M565.4 424.6H551.9L497.1 548.7H513.8L558.4 446.6L603.5 548.7H620.5L565.4 424.6Z" fill="#F7F7F7"/>
<path d="M698.1 548.7L650.7 505V548.7H635.7V417.6H650.7V495.4L688.8 461.3H708.7L665.7 499.9L718.3 548.7H698H698.1Z" fill="#F7F7F7"/>
<path d="M760.3 550.4C748.2 550.4 738 546 729.8 537.1C721.6 528.2 717.5 517.5 717.5 504.9C717.5 492.3 721.6 481.6 729.8 472.7C738 463.8 748.2 459.4 760.3 459.4C772.4 459.4 772.7 460.8 778.2 463.7C783.7 466.6 788 470.2 791 474.6V461.1H806V548.5H791V535C788 539.4 783.7 543.1 778.2 545.9C772.7 548.8 766.7 550.2 760.3 550.2V550.4ZM762.6 536.6C771.2 536.6 778.3 533.6 783.9 527.5C789.5 521.4 792.3 513.9 792.3 505C792.3 496.1 789.5 488.5 783.9 482.5C778.3 476.4 771.2 473.4 762.6 473.4C754 473.4 746.7 476.4 741.1 482.5C735.5 488.6 732.7 496.1 732.7 505C732.7 513.9 735.5 521.5 741.1 527.5C746.7 533.6 753.9 536.6 762.6 536.6Z" fill="#F7F7F7"/>
<path d="M860.9 550.4C848.8 550.4 838.6 546 830.4 537.1C822.2 528.2 818.1 517.5 818.1 504.9C818.1 492.3 822.2 481.6 830.4 472.7C838.6 463.8 848.8 459.4 860.9 459.4C873 459.4 873.3 460.8 878.8 463.7C884.3 466.6 888.6 470.2 891.6 474.6V461.1H906.6V548.5H891.6V535C888.6 539.4 884.3 543.1 878.8 545.9C873.3 548.8 867.3 550.2 860.9 550.2V550.4ZM863.1 536.6C871.7 536.6 878.8 533.6 884.4 527.5C890 521.4 892.8 513.9 892.8 505C892.8 496.1 890 488.5 884.4 482.5C878.8 476.4 871.7 473.4 863.1 473.4C854.5 473.4 847.2 476.4 841.6 482.5C836 488.6 833.2 496.1 833.2 505C833.2 513.9 836 521.5 841.6 527.5C847.2 533.6 854.4 536.6 863.1 536.6Z" fill="#F7F7F7"/>
<path d="M927.4 548.7V417.6H942.4V548.7H927.4Z" fill="#F7F7F7"/>
<path d="M519.5 648.8V660H508.4C502.2 660 497.2 655 497.2 648.8V566H508.4V648.9H519.6L519.5 648.8Z" fill="#F7F7F7"/>
<path d="M575.5 652.8C572.3 655.7 568.7 657.9 564.5 659.3C560.4 660.8 556.2 661.5 552.1 661.5C548 661.5 544.1 661 541 659.9C537.9 658.8 535.3 657.4 533.3 655.5C531.3 653.7 529.8 651.6 528.9 649.2C527.9 646.8 527.5 644.4 527.5 641.8V611.7C527.5 609.6 527.5 607.7 527.4 606C527.4 604.3 527.2 602.6 527 601H537C537.2 604 537.4 607 537.4 610H537.6C540.1 606.2 543 603.5 546.4 601.9C549.8 600.3 553.7 599.5 558.2 599.5C562.7 599.5 563.6 599.9 566 600.6C568.5 601.3 570.7 602.5 572.5 604C574.3 605.5 575.8 607.3 576.9 609.5C578 611.7 578.5 614.2 578.5 617.2C578.5 620.2 577.7 624.2 575.9 626.8C574.2 629.4 571.9 631.5 568.9 633.1C566 634.7 562.5 635.9 558.6 636.6C554.7 637.3 550.4 637.7 546 637.7H537.8V640.2C537.8 641.7 538.1 643.2 538.7 644.7C539.3 646.2 540.2 647.5 541.3 648.7C542.5 649.9 543.9 650.9 545.7 651.6C547.4 652.3 549.5 652.7 551.9 652.7C554.3 652.7 555.9 652.5 557.6 652.1C559.2 651.7 560.7 651.2 562 650.5C563.3 649.9 564.5 649.2 565.6 648.3C566.7 647.5 567.7 646.7 568.7 645.9L575.4 652.9L575.5 652.8ZM543.9 629.4C546.6 629.4 549.3 629.3 552.1 629C554.9 628.7 557.4 628.1 559.7 627.3C562 626.5 563.9 625.3 565.3 623.8C566.8 622.3 567.5 620.4 567.5 618.1C567.5 614.7 566.4 612.3 564.1 610.8C561.8 609.3 558.7 608.6 554.8 608.6C550.9 608.6 549.1 609.1 547 610.2C544.8 611.2 543.1 612.6 541.8 614.2C540.5 615.9 539.5 617.7 538.9 619.7C538.3 621.7 538 623.7 538 625.7V629.4H544H543.9Z" fill="#F7F7F7"/>
<path d="M587 601H598.2V610.1H598.4C599.8 606.9 602.3 604.4 605.7 602.4C609.2 600.5 613.2 599.5 617.8 599.5C622.4 599.5 623.3 599.9 626 600.8C628.6 601.7 630.9 603 632.8 604.8C634.7 606.6 636.3 609 637.5 611.8C638.7 614.7 639.2 618 639.2 621.9V659.9H628V625.1C628 622.4 627.6 620 626.9 618.1C626.2 616.2 625.2 614.6 623.9 613.4C622.7 612.2 621.2 611.3 619.6 610.8C618 610.3 616.3 610 614.6 610C612.9 610 610.1 610.4 608.1 611.1C606.1 611.8 604.4 613 602.9 614.6C601.4 616.2 600.2 618.3 599.4 620.8C598.6 623.3 598.2 626.2 598.2 629.6V660H587V601Z" fill="#F7F7F7"/>
<path d="M682.2 615.8C680.9 614.1 679.2 612.8 677.3 611.6C675.3 610.5 673 609.9 670.1 609.9C667.2 609.9 665.1 610.5 663.2 611.6C661.2 612.7 660.3 614.4 660.3 616.5C660.3 618.6 660.9 619.7 662 620.7C663.1 621.8 664.4 622.7 666 623.3C667.5 624 669.2 624.5 670.9 624.8C672.6 625.1 674.1 625.4 675.4 625.7C677.8 626.3 680.1 627 682.2 627.8C684.3 628.6 686.1 629.7 687.7 631C689.2 632.3 690.4 633.9 691.3 635.9C692.2 637.8 692.6 640.1 692.6 642.9C692.6 645.7 691.9 649.1 690.5 651.4C689.1 653.8 687.3 655.7 685 657.2C682.8 658.7 680.2 659.8 677.3 660.4C674.4 661.1 671.6 661.4 668.7 661.4C663.8 661.4 659.5 660.7 655.8 659.2C652.1 657.7 648.8 655 645.9 651L654.4 644C656.2 645.8 658.3 647.4 660.5 648.9C662.7 650.3 665.5 651 668.7 651C671.9 651 671.5 650.9 673 650.6C674.5 650.3 675.7 649.9 676.9 649.2C678.1 648.5 678.9 647.8 679.6 646.8C680.3 645.8 680.7 644.7 680.7 643.5C680.7 642.3 680.2 640.5 679.1 639.4C678.1 638.3 676.8 637.5 675.4 636.8C673.9 636.2 672.4 635.7 670.8 635.3C669.2 634.9 667.8 634.6 666.5 634.4C664.1 633.8 661.8 633.2 659.7 632.4C657.6 631.6 655.6 630.7 654 629.4C652.3 628.2 651 626.6 650 624.7C649 622.8 648.5 620.4 648.5 617.6C648.5 614.8 649.1 611.9 650.4 609.6C651.7 607.3 653.4 605.4 655.5 603.9C657.6 602.4 660 601.3 662.7 600.5C665.4 599.8 668.1 599.4 670.9 599.4C674.9 599.4 678.7 600.1 682.3 601.6C685.9 603.1 688.9 605.6 691 609.1L682.3 615.7L682.2 615.8Z" fill="#F7F7F7"/>
</svg>
