<svg width="1080" height="1080" viewBox="0 0 1080 1080" fill="none" xmlns="http://www.w3.org/2000/svg">
<path d="M488.3 364.6C487.4 367.4 485.8 370.1 483.8 372.3L430.8 429.9H430.5L384 480.1C381.6 482.6 380.5 485 381.7 488.2C382.7 490.8 385.4 492.9 389.1 492.4L452.3 472.3L439.6 510.5H387C378.5 510.5 371.6 505.1 367.7 499.4C362.5 491.8 362 483.5 364.9 475L409.4 390.9L488.2 364.6H488.3Z" fill="#F7F7F7"/>
<path d="M360.401 407.3V449.6C360.401 459.1 354.401 466.8 347.501 470.7C339.001 475.6 329.501 475.2 321.201 470.4L263.101 439.7L301.501 426.9L331.601 454.7C333.801 456.8 336.801 456.2 338.901 455C341.201 453.7 342.701 451.4 342.101 447.9L332.201 416.7L360.301 407.3H360.401Z" fill="#F7F7F7"/>
<path d="M345.4 540.9L382.6 658C385.1 665.9 385.1 674.5 382.4 682.4L371.4 715.4L326.8 670.8V595.9V537.8C326.8 528.6 332.8 520.9 339.3 517.2C347.8 512.2 356.9 512.4 365.3 516.8L426.7 549.3L414.1 587L356.7 533.9C353.7 531.1 350.8 531 347.9 532.9C345.5 534.4 344.3 537.4 345.4 541V540.9Z" fill="#F7F7F7"/>
<path d="M321.7 513.6L269.1 613.1L236.1 580.1L303.3 507.4C305.9 504.5 306.9 501.4 304.8 498.3C302.7 495.2 299.5 494.8 295.5 496.1L240.6 513.6L186.7 530.7L137.7 481.7C146.8 478.7 156.4 477.1 166 477.1H232.7H299.1C308 477.1 315.3 482.3 319.4 488.2C324.8 496.2 325.3 505 321.7 513.7V513.6Z" fill="#F7F7F7"/>
<path d="M564.8 425.3H551.3L496.3 549.6H513.1L557.8 447.3L602.9 549.6H619.9L564.8 425.3Z" fill="#F7F7F7"/>
<path d="M697.6 549.6L650.2 505.8V549.6H635.1V418.3H650.2V496.2L688.4 462.1H708.4L665.3 500.8L718 549.6H697.7H697.6Z" fill="#F7F7F7"/>
<path d="M760 551.3C747.9 551.3 737.7 546.9 729.4 538C721.2 529.1 717.1 518.4 717.1 505.8C717.1 493.2 721.2 482.5 729.4 473.6C737.6 464.7 747.8 460.3 760 460.3C772.2 460.3 772.4 461.7 777.9 464.6C783.4 467.5 787.7 471.1 790.8 475.5V462H805.9V549.5H790.8V536C787.8 540.4 783.5 544.1 777.9 546.9C772.4 549.8 766.4 551.2 760 551.2V551.3ZM762.3 537.5C770.9 537.5 778.1 534.5 783.7 528.4C789.3 522.3 792.1 514.8 792.1 505.8C792.1 496.8 789.3 489.3 783.7 483.2C778.1 477.1 771 474.1 762.3 474.1C753.6 474.1 746.4 477.1 740.8 483.2C735.2 489.3 732.4 496.8 732.4 505.8C732.4 514.8 735.2 522.3 740.8 528.4C746.4 534.5 753.6 537.5 762.3 537.5Z" fill="#F7F7F7"/>
<path d="M860.7 551.3C848.6 551.3 838.4 546.9 830.1 538C821.9 529.1 817.8 518.4 817.8 505.8C817.8 493.2 821.9 482.5 830.1 473.6C838.3 464.7 848.5 460.3 860.7 460.3C872.9 460.3 873.1 461.7 878.6 464.6C884.1 467.5 888.4 471.1 891.5 475.5V462H906.6V549.5H891.5V536C888.5 540.4 884.2 544.1 878.6 546.9C873.1 549.8 867.1 551.2 860.7 551.2V551.3ZM863 537.5C871.6 537.5 878.8 534.5 884.4 528.4C890 522.3 892.8 514.8 892.8 505.8C892.8 496.8 890 489.3 884.4 483.2C878.8 477.1 871.7 474.1 863 474.1C854.3 474.1 847.1 477.1 841.5 483.2C835.9 489.3 833.1 496.8 833.1 505.8C833.1 514.8 835.9 522.3 841.5 528.4C847.1 534.5 854.3 537.5 863 537.5Z" fill="#F7F7F7"/>
<path d="M927.4 549.6V418.3H942.5V549.6H927.4Z" fill="#F7F7F7"/>
<path d="M518.7 649V660.2H507.5C501.3 660.2 496.2 655.2 496.2 648.9V565.9H507.4V648.9H518.6L518.7 649Z" fill="#F7F7F7"/>
<path d="M530.2 608.4C533.4 605.5 537 603.3 541.2 601.9C545.4 600.4 549.5 599.7 553.7 599.7C557.9 599.7 561.7 600.2 564.9 601.3C568 602.4 570.6 603.8 572.6 605.7C574.6 607.5 576.1 609.6 577 612C578 614.4 578.4 616.8 578.4 619.4V649.6C578.4 651.7 578.4 653.6 578.5 655.3C578.5 657 578.7 658.7 578.9 660.3H568.9C568.6 657.3 568.5 654.3 568.5 651.3H568.2C565.7 655.1 562.8 657.8 559.4 659.4C556 661 552 661.8 547.6 661.8C543.2 661.8 542.2 661.4 539.7 660.7C537.2 660 535 658.8 533.2 657.3C531.3 655.8 529.9 654 528.8 651.8C527.7 649.6 527.2 647 527.2 644.1C527.2 641.2 528.1 637.1 529.8 634.5C531.5 631.9 533.8 629.8 536.8 628.2C539.7 626.6 543.2 625.4 547.1 624.7C551 624 555.3 623.6 559.8 623.6H568V621.1C568 619.6 567.7 618.1 567.1 616.6C566.5 615.1 565.6 613.8 564.5 612.5C563.3 611.3 561.9 610.3 560.1 609.6C558.4 608.9 556.3 608.5 553.9 608.5C551.5 608.5 549.8 608.7 548.2 609.1C546.6 609.5 545.1 610 543.8 610.7C542.5 611.3 541.3 612.1 540.2 612.9C539.1 613.7 538.1 614.5 537.1 615.3L530.4 608.3L530.2 608.4ZM561.9 631.8C559.2 631.8 556.5 631.9 553.7 632.2C550.9 632.5 548.4 633.1 546.1 633.9C543.8 634.7 541.9 635.9 540.5 637.4C539 638.9 538.3 640.8 538.3 643.1C538.3 646.5 539.4 649 541.7 650.5C544 652 547.1 652.7 551 652.7C554.9 652.7 556.7 652.2 558.9 651.1C561.1 650.1 562.8 648.7 564.1 647C565.4 645.3 566.4 643.5 567 641.5C567.6 639.5 567.9 637.4 567.9 635.5V631.8H561.9Z" fill="#F7F7F7"/>
<path d="M589 566H600.2V609.6H600.4C602.4 606.5 605.3 604.1 609 602.3C612.7 600.5 616.7 599.6 621 599.6C625.3 599.6 629.7 600.4 633.4 602C637.1 603.6 640.3 605.8 642.9 608.5C645.5 611.3 647.5 614.6 648.9 618.3C650.3 622.1 651 626.2 651 630.6C651 635 650.3 639.1 648.9 642.8C647.5 646.5 645.5 649.8 642.9 652.6C640.3 655.4 637.1 657.6 633.4 659.2C629.7 660.8 625.6 661.6 621 661.6C616.4 661.6 613.1 660.7 609.3 659C605.5 657.3 602.5 654.8 600.4 651.6H600.2V660.1H589V565.9V566ZM619.7 651.2C622.7 651.2 625.4 650.7 627.8 649.6C630.2 648.6 632.2 647.1 633.9 645.4C635.6 643.6 636.8 641.5 637.8 638.9C638.7 636.4 639.2 633.6 639.2 630.6C639.2 627.6 638.7 624.8 637.8 622.3C636.9 619.8 635.6 617.6 633.9 615.8C632.2 614 630.2 612.6 627.8 611.6C625.4 610.6 622.7 610 619.7 610C616.7 610 614 610.5 611.6 611.6C609.2 612.6 607.2 614.1 605.5 615.8C603.8 617.6 602.5 619.7 601.6 622.3C600.7 624.8 600.2 627.6 600.2 630.6C600.2 633.6 600.7 636.4 601.6 638.9C602.5 641.4 603.8 643.6 605.5 645.4C607.2 647.2 609.2 648.6 611.6 649.6C614 650.6 616.7 651.2 619.7 651.2Z" fill="#F7F7F7"/>
<path d="M691.5 616C690.2 614.3 688.5 612.9 686.6 611.8C684.7 610.7 682.3 610.1 679.4 610.1C676.5 610.1 674.4 610.7 672.5 611.8C670.6 612.9 669.6 614.6 669.6 616.7C669.6 618.8 670.2 619.9 671.3 620.9C672.4 622 673.7 622.9 675.3 623.5C676.8 624.2 678.5 624.7 680.2 625C681.9 625.3 683.4 625.6 684.7 625.9C687.1 626.5 689.4 627.2 691.5 628C693.6 628.8 695.4 629.9 697 631.2C698.5 632.5 699.7 634.2 700.6 636.1C701.5 638 701.9 640.3 701.9 643.1C701.9 645.9 701.2 649.3 699.8 651.6C698.4 654 696.6 655.9 694.3 657.4C692.1 658.9 689.5 660 686.6 660.6C683.7 661.3 680.8 661.6 677.9 661.6C673 661.6 668.7 660.9 665 659.4C661.3 657.9 658 655.2 655.1 651.2L663.6 644.2C665.4 646 667.5 647.6 669.7 649.1C671.9 650.5 674.7 651.2 677.9 651.2C681.1 651.2 680.7 651.1 682.2 650.8C683.7 650.5 684.9 650.1 686.1 649.4C687.2 648.8 688.1 648 688.8 647C689.5 646 689.9 644.9 689.9 643.7C689.9 642.5 689.4 640.7 688.3 639.6C687.3 638.5 686 637.7 684.6 637C683.1 636.4 681.6 635.9 680 635.5C678.4 635.1 676.9 634.8 675.7 634.6C673.3 634 671 633.4 668.8 632.6C666.6 631.9 664.7 630.9 663.1 629.6C661.4 628.4 660.1 626.8 659.1 624.9C658.1 623 657.6 620.6 657.6 617.8C657.6 615 658.2 612 659.5 609.8C660.8 607.5 662.5 605.6 664.6 604.1C666.7 602.6 669.1 601.5 671.8 600.7C674.5 600 677.2 599.6 680 599.6C684 599.6 687.8 600.3 691.5 601.8C695.2 603.3 698.1 605.8 700.2 609.3L691.5 615.9V616Z" fill="#F7F7F7"/>
</svg>
